<svg xmlns="http://www.w3.org/2000/svg" fill="none" viewBox="43.128 22.784552845528456 246.78799999999998 255.4268292682927" style="max-height: 500px" width="246.78799999999998" height="255.4268292682927">
<g clip-path="url(#clip0_2311_15)">
<g clip-path="url(#clip1_2311_15)">
<path fill="#D1AF3A" d="M262.612 50.566C262.314 50.3668 261.659 49.9825 261.104 49.7264C260.535 49.4276 259.923 49.1572 259.311 48.8868C258.073 48.3746 256.807 47.8765 255.498 47.4781C252.893 46.667 250.19 46.0409 247.429 45.6994C241.922 44.9167 236.244 45.0875 230.652 45.8559C219.411 47.4354 208.51 51.7044 198.365 57.3109C178.058 68.7375 160.627 85.1019 145.002 102.733L139.211 109.435L133.619 116.308C129.876 120.876 126.432 125.671 122.975 130.481C116.087 140.129 109.314 149.919 102.313 159.524C95.3117 169.129 88.1256 178.635 80.2849 187.6C76.3575 192.068 72.245 196.394 67.7911 200.364C65.5428 202.314 63.2518 204.22 60.7473 205.843C58.2713 207.479 55.6388 208.945 52.7786 209.798C55.6103 208.859 58.1717 207.322 60.605 205.629C63.0383 203.95 65.2724 201.986 67.4638 199.98C71.7755 195.924 75.7456 191.499 79.5308 186.945C87.0868 177.81 93.9883 168.148 100.705 158.372C107.421 148.596 113.896 138.649 120.541 128.773C123.871 123.85 127.229 118.898 130.901 114.174L136.351 107.073L142.014 100.129C157.326 81.8575 174.544 64.682 195.419 52.1455C205.864 45.9982 217.305 41.0746 229.585 38.9971C235.704 37.9868 242.022 37.6026 248.311 38.3283C251.456 38.6413 254.587 39.2674 257.675 40.1212C259.226 40.5481 260.748 41.0747 262.271 41.6723C263.025 41.9854 263.779 42.2842 264.548 42.6684C265.33 43.0384 265.985 43.3657 266.953 43.9491L262.612 50.566Z"/>
<path fill="#D1AF3A" d="M263.851 51.434C263.395 51.3201 262.527 51.1778 261.816 51.0924C259.52 50.827 257.202 50.7984 254.9 51.0071C251.812 51.2917 248.753 51.9747 245.821 53.0277C239.959 55.1764 234.722 58.9474 230.382 63.6432C221.73 73.2342 216.721 86.0695 213.633 99.0898C210.56 112.21 209.179 125.814 208.767 139.432C208.681 142.847 208.681 146.262 208.624 149.663C208.596 153.078 208.753 156.493 208.809 159.908C208.98 166.753 209.179 173.783 208.738 180.713C207.913 194.572 205.309 208.617 199.062 221.239C195.931 227.515 191.833 233.363 186.739 238.23C181.702 243.139 175.654 246.953 169.208 249.642C156.23 255.021 141.915 255.818 128.254 254.153C121.398 253.307 114.637 251.816 108.062 249.699C104.789 248.632 101.545 247.436 98.4282 245.956C96.8772 245.217 95.3403 244.434 93.8747 243.509C93.1632 243.039 92.4374 242.556 91.7971 241.972C91.2137 241.403 90.431 240.734 90.5591 239.823C90.4452 240.72 91.2279 241.374 91.8255 241.915C92.4659 242.484 93.2058 242.94 93.9316 243.395C95.3973 244.277 96.9483 245.032 98.5136 245.729C101.644 247.123 104.903 248.233 108.19 249.229C114.764 251.179 121.538 252.488 128.339 253.171C141.915 254.509 155.974 253.342 168.411 247.835C174.572 245.074 180.293 241.289 184.989 236.465C189.741 231.698 193.527 226.035 196.387 219.944C202.093 207.707 204.313 194.06 204.797 180.528C205.067 173.711 204.711 166.981 204.384 160.093C204.242 156.636 204.014 153.178 203.957 149.72C203.929 146.262 203.843 142.79 203.843 139.332C203.943 125.472 204.996 111.527 207.87 97.7807C209.393 90.9361 211.214 84.0773 214.046 77.5174C216.835 70.9574 220.407 64.5966 225.231 59.0469C230.069 53.54 236.159 48.8726 243.189 46.112C246.689 44.7459 250.375 43.821 254.132 43.3941C256.01 43.1949 257.903 43.081 259.795 43.1379C261.745 43.1949 263.481 43.3087 265.729 43.7641L263.851 51.434Z"/>
<path fill="#D1AF3A" d="M133.704 142.633L245.224 146.575L133.704 150.517V142.633Z"/>
<path fill="#D1AF3A" d="M262.612 50.566C262.314 50.3668 261.659 49.9825 261.104 49.7264C260.535 49.4276 259.923 49.1572 259.311 48.8868C258.073 48.3746 256.807 47.8765 255.498 47.4781C252.893 46.667 250.19 46.0409 247.429 45.6994C241.922 44.9167 236.244 45.0875 230.652 45.8559C219.411 47.4354 208.51 51.7044 198.365 57.3109C178.058 68.7375 160.627 85.1019 145.002 102.733L139.211 109.435L133.619 116.308C129.876 120.876 126.432 125.671 122.975 130.481C116.087 140.129 109.314 149.919 102.313 159.524C95.3117 169.129 88.1256 178.635 80.2849 187.6C76.3575 192.068 72.245 196.394 67.7911 200.364C65.5428 202.314 63.2518 204.22 60.7473 205.843C58.2713 207.479 55.6388 208.945 52.7786 209.798C55.6103 208.859 58.1717 207.322 60.605 205.629C63.0383 203.95 65.2724 201.986 67.4638 199.98C71.7755 195.924 75.7456 191.499 79.5308 186.945C87.0868 177.81 93.9883 168.148 100.705 158.372C107.421 148.596 113.896 138.649 120.541 128.773C123.871 123.85 127.229 118.898 130.901 114.174L136.351 107.073L142.014 100.129C157.326 81.8575 174.544 64.682 195.419 52.1455C205.864 45.9982 217.305 41.0746 229.585 38.9971C235.704 37.9868 242.022 37.6026 248.311 38.3283C251.456 38.6413 254.587 39.2674 257.675 40.1212C259.226 40.5481 260.748 41.0747 262.271 41.6723C263.025 41.9854 263.779 42.2842 264.548 42.6684C265.33 43.0384 265.985 43.3657 266.953 43.9491L262.612 50.566Z"/>
<path fill="#D1AF3A" d="M263.851 51.434C263.395 51.3201 262.527 51.1778 261.816 51.0924C259.52 50.827 257.202 50.7984 254.9 51.0071C251.812 51.2917 248.753 51.9747 245.821 53.0277C239.959 55.1764 234.722 58.9474 230.382 63.6432C221.73 73.2342 216.721 86.0695 213.633 99.0898C210.56 112.21 209.179 125.814 208.767 139.432C208.681 142.847 208.681 146.262 208.624 149.663C208.596 153.078 208.753 156.493 208.809 159.908C208.98 166.753 209.179 173.783 208.738 180.713C207.913 194.572 205.309 208.617 199.062 221.239C195.931 227.515 191.833 233.363 186.739 238.23C181.702 243.139 175.654 246.953 169.208 249.642C156.23 255.021 141.915 255.818 128.254 254.153C121.398 253.307 114.637 251.816 108.062 249.699C104.789 248.632 101.545 247.436 98.4282 245.956C96.8772 245.217 95.3403 244.434 93.8747 243.509C93.1632 243.039 92.4374 242.556 91.7971 241.972C91.2137 241.403 90.431 240.734 90.5591 239.823C90.4452 240.72 91.2279 241.374 91.8255 241.915C92.4659 242.484 93.2058 242.94 93.9316 243.395C95.3973 244.277 96.9483 245.032 98.5136 245.729C101.644 247.123 104.903 248.233 108.19 249.229C114.764 251.179 121.538 252.488 128.339 253.171C141.915 254.509 155.974 253.342 168.411 247.835C174.572 245.074 180.293 241.289 184.989 236.465C189.741 231.698 193.527 226.035 196.387 219.944C202.093 207.707 204.313 194.06 204.797 180.528C205.067 173.711 204.711 166.981 204.384 160.093C204.242 156.636 204.014 153.178 203.957 149.72C203.929 146.262 203.843 142.79 203.843 139.332C203.943 125.472 204.996 111.527 207.87 97.7807C209.393 90.9361 211.214 84.0773 214.046 77.5174C216.835 70.9574 220.407 64.5966 225.231 59.0469C230.069 53.54 236.159 48.8726 243.189 46.112C246.689 44.7459 250.375 43.821 254.132 43.3941C256.01 43.1949 257.903 43.081 259.795 43.1379C261.745 43.1949 263.481 43.3087 265.729 43.7641L263.851 51.434Z"/>
<path fill="#D1AF3A" d="M133.704 142.633L245.224 146.575L133.704 150.517V142.633Z"/>
<path fill="black" d="M447.687 195.882H434.396L426.641 166.511H402.265L394.509 195.867H381.219L408.924 100.029H420.009L447.687 195.882ZM423.866 155.995L415.001 122.199H413.891L405.025 155.995H423.866ZM586.186 111.114H540.75V142.135H575.101V152.665H540.75V195.327H528.014V100.584H586.186V111.114ZM664.365 195.882H651.074L643.319 166.511H618.943L611.188 195.867H597.897L625.603 100.029H636.688L664.365 195.882ZM640.544 155.995L631.679 122.199H630.569L621.704 155.995H640.544ZM741.249 168.731C741.249 177.226 738.56 183.971 733.209 188.952C727.845 193.932 720.559 196.437 711.324 196.437C702.088 196.437 694.888 193.861 689.723 188.681C684.543 183.516 681.967 177.041 681.967 169.286V165.401H694.703V168.731C694.703 174.266 696.368 178.521 699.684 181.467C703.013 184.427 706.884 185.892 711.324 185.892C717.229 185.892 721.569 184.327 724.344 181.182C727.119 178.052 728.499 174.252 728.499 169.827C728.499 166.141 726.834 162.726 723.519 159.581C720.189 156.451 715.393 153.576 709.118 151.001C700.253 147.671 693.878 143.985 690.007 139.915C686.123 135.86 684.187 131.05 684.187 125.515C684.187 117.76 686.862 111.484 692.227 106.674C697.578 101.879 703.953 99.4741 711.338 99.4741C720.943 99.4741 727.859 102.334 732.114 108.055C736.354 113.789 738.488 119.965 738.488 126.61H725.753C726.123 122.555 725.013 118.855 722.423 115.525C719.833 112.196 716.133 110.545 711.338 110.545C706.912 110.545 703.398 111.755 700.808 114.145C698.218 116.55 696.923 119.78 696.923 123.836C696.923 127.165 697.933 130.026 699.968 132.416C701.989 134.821 707.254 137.681 715.763 140.997C723.889 144.327 730.164 148.297 734.604 152.907C739.029 157.561 741.249 162.826 741.249 168.731ZM822.872 195.327H810.136V151.001H778.56V195.327H765.824V100.584H778.56V140.47H810.136V100.584H822.872V195.327ZM869.66 195.327H856.924V100.584H869.66V195.327ZM961.015 147.685C961.015 165.045 958.326 177.511 952.976 185.081C947.611 192.651 940.14 196.437 930.535 196.437C920.93 196.437 913.36 192.651 907.824 185.081C902.289 177.511 899.514 165.045 899.514 147.685C899.514 130.324 902.289 117.959 907.824 110.559C913.36 103.174 920.93 99.4741 930.535 99.4741C940.14 99.4741 947.611 103.174 952.976 110.559C958.326 117.959 961.015 130.324 961.015 147.685ZM947.711 147.685C947.711 132.174 946.046 122.014 942.73 117.219C939.4 112.423 935.331 110.018 930.535 110.018C925.725 110.018 921.57 112.423 918.07 117.219C914.555 122.028 912.805 132.174 912.805 147.685C912.805 163.196 914.555 173.441 918.07 178.436C921.57 183.416 925.725 185.921 930.535 185.921C935.331 185.921 939.4 183.43 942.73 178.436C946.046 173.441 947.711 163.196 947.711 147.685ZM1041.53 195.327H1027.68L997.216 126.625H996.661V195.327H983.926V100.584H997.771L1028.24 169.286H1028.79V100.584H1041.53V195.327ZM1125.37 168.731C1125.37 177.226 1122.68 183.971 1117.33 188.952C1111.97 193.932 1104.68 196.437 1095.45 196.437C1086.21 196.437 1079.01 193.861 1073.84 188.681C1068.66 183.516 1066.09 177.041 1066.09 169.286V165.401H1078.82V168.731C1078.82 174.266 1080.49 178.521 1083.81 181.467C1087.13 184.427 1091.01 185.892 1095.45 185.892C1101.35 185.892 1105.69 184.327 1108.47 181.182C1111.24 178.052 1112.62 174.252 1112.62 169.827C1112.62 166.141 1110.96 162.726 1107.64 159.581C1104.31 156.451 1099.51 153.576 1093.24 151.001C1084.37 147.671 1078 143.985 1074.13 139.915C1070.24 135.86 1068.31 131.05 1068.31 125.515C1068.31 117.76 1070.98 111.484 1076.35 106.674C1081.7 101.879 1088.07 99.4741 1095.46 99.4741C1105.06 99.4741 1111.98 102.334 1116.24 108.055C1120.48 113.789 1122.61 119.965 1122.61 126.61H1109.87C1110.24 122.555 1109.13 118.855 1106.54 115.525C1103.95 112.196 1100.25 110.545 1095.46 110.545C1091.03 110.545 1087.52 111.755 1084.93 114.145C1082.34 116.55 1081.04 119.78 1081.04 123.836C1081.04 127.165 1082.05 130.026 1084.09 132.416C1086.11 134.821 1091.38 137.681 1099.88 140.997C1108.01 144.327 1114.29 148.297 1118.73 152.907C1123.15 157.561 1125.37 162.826 1125.37 168.731Z"/>
<path stroke-miterlimit="10" stroke-width="1.42299" stroke="black" d="M323.004 37.9868V254.964"/>
</g>
</g>
<defs>
<clipPath id="clip0_2311_15">
<rect fill="white" height="295" width="1198"/>
</clipPath>
<clipPath id="clip1_2311_15">
<rect fill="white" height="295" width="1198"/>
</clipPath>
</defs>
</svg>