<?xml version="1.0" encoding="UTF-8" standalone="no"?>
<!-- Created with Inkscape (http://www.inkscape.org/) -->

<svg
   width="109.33984mm"
   height="109.23086mm"
   viewBox="0 0 109.33985 109.23086"
   version="1.1"
   id="svg1"
   xml:space="preserve"
   xmlns="http://www.w3.org/2000/svg"
   xmlns:svg="http://www.w3.org/2000/svg"><defs
     id="defs1" /><g
     id="layer1"
     transform="translate(-33.602305,-125.65606)"><g
       id="g32"
       transform="translate(0.37002088,-0.36627912)"
       style="fill:#000000"><path
         style="opacity:1;fill:#000000;stroke-width:0.264583"
         d="m 127.27662,180.11085 c -0.24472,0.42828 -0.97889,1.83543 -3.33441,4.49686 -2.35551,2.66144 -6.33226,6.57701 -10.79859,9.94206 -4.46633,3.36505 -9.42198,6.17937 -14.59191,7.80072 -5.16993,1.62135 -10.553841,2.04962 -15.662594,1.28485 -5.108753,-0.76477 -9.942039,-2.72256 -14.408375,-5.32281 -4.466335,-2.60026 -8.565447,-5.84284 -11.869318,-8.90198 -3.303871,-3.05913 -5.812286,-5.93463 -5.414629,-9.2079 0.397658,-3.27326 3.701422,-6.94411 7.280605,-10.00325 3.579183,-3.05914 7.433572,-5.50637 11.869307,-7.64777 4.435736,-2.14139 9.452566,-3.97681 14.010676,-4.80279 4.55811,-0.82598 8.657225,-0.64244 12.848236,0.45884 4.191012,1.10128 8.473672,3.12025 12.419952,5.65933 3.94628,2.53907 7.55595,5.59811 10.18681,8.07601 2.63087,2.4779 4.28275,4.37451 7.5866,6.63826 3.30384,2.26376 8.25949,4.89453 10.768,4.19097 2.50851,-0.70357 2.5697,-4.7415 1.65197,-9.97261 -0.91773,-5.2311 -2.81434,-11.65509 -5.53696,-17.13095 -2.72262,-5.47585 -6.27111,-10.00323 -10.55389,-13.91892 -4.28277,-3.9157 -9.2996,-7.21946 -15.29549,-9.51382 -5.99589,-2.29436 -12.970501,-3.57916 -19.027591,-3.91568 -6.057091,-0.33651 -11.196278,0.2753 -16.488575,1.80486 -5.292297,1.52955 -10.73739,3.97679 -15.44846,7.25005 -4.71107,3.27326 -8.687827,7.37238 -11.685786,10.98216 -2.997959,3.60978 -5.016923,6.73 -6.45472,9.45263 -1.437798,2.72263 -2.294329,5.0475 -3.089705,8.13722 -0.795375,3.08971 -1.529547,6.94411 -1.651917,10.95157 -0.122371,4.00746 0.367075,8.16775 1.009492,11.83871 0.642416,3.67097 1.437766,6.85237 2.692005,10.21742 1.25424,3.36504 2.967303,6.91353 5.414601,10.58449 2.447297,3.67095 5.6287,7.46416 8.657244,10.43153 3.028544,2.96737 5.904038,5.10869 8.749031,6.82181 2.844994,1.71312 5.659312,2.99792 8.932578,4.1298 3.273267,1.13188 7.005297,2.11077 10.890393,2.75319 3.885097,0.64242 7.92303,0.94832 11.318673,0.79537 3.395642,-0.15295 6.14878,-0.76476 9.054957,-1.59072 2.90617,-0.82596 5.96521,-1.86604 8.96316,-3.30382 2.99795,-1.43779 5.93463,-3.27321 8.62667,-5.20047 2.69204,-1.92725 5.13927,-3.94622 7.28066,-6.20998 2.1414,-2.26375 3.97682,-4.77217 5.84289,-7.73952 1.86607,-2.96735 3.76268,-6.39347 5.20047,-10.49271 1.4378,-4.09923 2.4167,-8.87133 0.64243,-12.17521 -1.77427,-3.30387 -6.30174,-5.13933 -8.44311,-6.33238 -2.14137,-1.19306 -1.89665,-1.74369 -2.14138,-1.31542 z"
         id="path29"
         transform="translate(-0.18354627,-0.55063801)" /><path
         style="opacity:1;fill:#000000;stroke-width:0.264583"
         d="m 128.68382,179.22372 c 1.28482,0.39768 3.48737,1.62132 5.35343,2.20255 1.86607,0.58123 3.39559,0.52004 4.4051,-0.3977 1.00951,-0.91775 1.49895,-2.692 2.01901,-3.45677 0.52005,-0.76477 1.07068,-0.52005 1.46837,1.22367 0.39768,1.74372 0.6424,4.9863 0.6424,7.52537 0,2.53908 -0.24472,4.3745 -0.91773,7.06655 -0.67302,2.69204 -1.77427,6.24053 -3.88509,10.52333 -2.11081,4.28279 -5.23103,9.29961 -7.15827,11.44098 -1.92724,2.14136 -2.66141,1.40719 -2.01898,-0.39771 0.64243,-1.8049 2.6614,-4.6804 4.49688,-8.10663 1.83547,-3.42623 3.48736,-7.40299 4.03799,-10.92098 0.55063,-3.518 0,-6.57704 -1.40721,-8.87138 -1.40721,-2.29434 -3.6709,-3.82387 -5.32282,-4.92515 -1.65193,-1.10129 -2.692,-1.77427 -3.02849,-2.32491 -0.3365,-0.55065 0.0306,-0.97891 1.31541,-0.58122 z"
         id="path30" /><path
         style="opacity:1;fill:#000000;stroke-width:0.264583"
         d="m 138.9624,172.00424 c 2.08018,1.07068 1.59073,-3.15088 -0.55068,-8.68792 -2.14141,-5.53704 -5.93463,-12.3893 -10.09505,-17.6204 -4.16042,-5.23109 -8.6878,-8.84076 -13.91892,-11.74693 -5.23112,-2.90617 -11.16566,-5.10868 -16.121447,-6.4241 -4.955785,-1.31542 -8.932536,-1.74368 -13.674199,-1.37658 -4.741663,0.3671 -10.247935,1.52954 -14.897807,2.96734 -4.649872,1.43779 -8.44308,3.15085 -11.869305,5.26166 -3.426224,2.1108 -6.485268,4.61922 -9.513809,7.80072 -3.02854,3.18151 -6.026398,7.0359 -8.228965,10.61508 -2.202567,3.57918 -3.609725,6.88294 -4.558052,10.03385 -0.948327,3.1509 -1.437774,6.14876 -1.83546,10.24801 -0.397686,4.09925 -0.70359,9.29962 -0.214121,14.07186 0.489469,4.77224 1.774267,9.11608 3.701526,13.55182 1.927258,4.43574 4.496851,8.96312 7.525397,13.06236 3.028546,4.09923 6.515853,7.77008 10.30918,10.73743 3.793327,2.96735 7.892439,5.23104 13.307117,7.09711 5.414678,1.86607 12.144567,3.3344 18.813475,3.60971 6.668908,0.27531 13.27643,-0.6424 18.93582,-2.56966 5.65938,-1.92727 10.37031,-4.86395 13.98008,-7.4948 3.60976,-2.63085 6.11817,-4.95572 7.3724,-6.27113 1.25423,-1.31542 1.25423,-1.62133 1.22364,-2.32493 -0.0306,-0.7036 -0.0918,-1.80486 -1.95786,-0.55059 -1.86609,1.25427 -5.53694,4.86394 -10.85984,8.1678 -5.32291,3.30386 -12.29752,6.30172 -21.169024,6.79115 -8.871503,0.48944 -19.639325,-1.52953 -29.520311,-8.81032 C 55.2652,214.862 46.271619,202.31993 43.273728,189.65512 c -2.99789,-12.66481 -3.2e-5,-25.45159 7.005422,-34.56777 7.005453,-9.11618 18.017998,-14.56127 24.44213,-17.28387 6.424132,-2.7226 8.259555,-2.7226 16.305135,1.13195 8.045581,3.85454 22.300705,11.56332 31.753375,18.59931 9.45267,7.036 14.10242,13.39881 16.18261,14.4695 z"
         id="path31" /><path
         style="opacity:1;fill:#000000;stroke-width:0.264583"
         d="m 121.28079,158.20769 c 7.52539,8.13721 13.33768,18.66052 16.7027,23.4633 3.36502,4.80278 4.28274,3.88506 4.34391,0.58117 0.0612,-3.30388 -0.73418,-8.99369 -2.11079,-14.37776 -1.37662,-5.38407 -3.3344,-10.46208 -6.63828,-15.81557 -3.30388,-5.35348 -7.95362,-10.98211 -13.21533,-15.02015 -5.26171,-4.03804 -11.13507,-6.48527 -16.15204,-8.07601 -5.01697,-1.59074 -9.177264,-2.32491 -10.523253,-0.58118 -1.345989,1.74373 0.122348,5.9652 5.475867,10.95159 5.353516,4.9864 14.591826,10.7374 22.117216,18.87461 z"
         id="path32" /><path
         style="opacity:1;fill:#000000;stroke-width:0.264583"
         d="m 124.20722,177.04724 c -0.41217,0.90678 0.41218,2.30818 0.82435,3.87446 0.41217,1.56627 0.41217,3.29737 1.68993,3.46222 1.27777,0.16486 3.8332,-1.23651 4.24536,-3.00888 0.41215,-1.77236 -1.31895,-3.91562 -3.00887,-4.78119 -1.68993,-0.86556 -3.33859,-0.45339 -3.75077,0.45339 z"
         id="path33"
         transform="translate(0.74191367,-0.49460843)" /><path
         style="opacity:1;fill:#000000;stroke-width:0.264583"
         d="m 127.90112,212.2589 c -1.04309,1.8612 -1.00219,4.23373 2e-5,4.41778 1.0022,0.18406 2.96563,-1.82028 4.00872,-3.6815 1.04309,-1.86122 1.16581,-3.57922 0.1636,-3.76328 -1.00221,-0.18406 -3.12925,1.1658 -4.17234,3.027 z"
         id="path34"
         transform="translate(-0.37001986,0.36627912)" /><path
         style="opacity:1;fill:#000000;stroke-width:0.264583"
         d="m 125.87629,216.94259 c -0.81811,1.63622 -0.36815,2.69976 0.59314,2.49522 0.9613,-0.20454 2.43387,-1.67711 3.55878,-2.88383 1.12491,-1.20673 1.90211,-2.14754 1.98391,-3.04747 0.0818,-0.89993 -0.53177,-1.75893 -1.88167,-1.08396 -1.34991,0.67496 -3.43605,2.88381 -4.25416,4.52004 z"
         id="path35"
         transform="translate(-0.37001986,0.36627912)" /><path
         style="opacity:1;fill:#000000;stroke-width:0.264583"
         d="m 125.67161,178.42221 c -1.79494,0.24279 -3.75561,-2.35377 -6.49793,-5.08284 -2.74233,-2.72907 -6.26617,-5.59053 -10.13456,-8.00164 -3.86839,-2.41112 -8.0811,-4.37175 -12.201196,-5.45807 -4.120096,-1.08632 -8.147337,-1.29828 -11.485803,-1.04657 -3.338465,0.25171 -5.987967,0.96708 -8.72758,2.15129 -2.739612,1.1842 -5.569171,2.83717 -8.714333,5.11717 -3.145162,2.28 -6.605739,5.18688 -9.408881,7.69587 -2.803141,2.50898 -4.948697,4.61993 -6.540603,5.98689 -1.591906,1.36696 -2.630077,1.98986 -2.266692,-3.32234 0.363385,-5.3122 2.128276,-16.55906 11.402965,-22.18261 9.274689,-5.62354 26.058469,-5.62354 38.914843,-1.73024 12.85638,3.8933 21.78466,11.6796 25.43426,17.11392 3.64961,5.43432 2.02044,8.51639 0.22551,8.75917 z"
         id="path36" /><path
         style="opacity:1;fill:#000000;stroke-width:0.264583"
         d="m 124.6738,178.10302 c -0.19189,0.49172 0.3598,1.0674 1.04342,1.19332 0.68362,0.12593 1.49915,-0.19788 1.69104,-0.68961 0.19188,-0.49173 -0.23987,-1.15135 -0.92349,-1.27727 -0.68362,-0.12592 -1.61908,0.28184 -1.81097,0.77356 z"
         id="path37" /><path
         style="opacity:1;fill:#000000;stroke-width:0.264583"
         d="m 121.30091,175.5636 4.67895,5.62622 2.64087,-3.04275 z"
         id="path38" /><path
         style="opacity:1;fill:#000000;stroke-width:0.264583"
         d="m 51.021259,180.65193 7.310684,9.9531 -11.450469,0.17616 z"
         id="path39" /><ellipse
         style="opacity:1;fill:#000000;stroke-width:0.136908"
         id="path5"
         cx="88.163124"
         cy="180.57097"
         rx="11.92186"
         ry="11.684443"
         transform="translate(-0.37001986,0.36627912)" /><path
         style="opacity:1;fill:#000000;stroke-width:0.264583"
         d="m 57.030307,188.10656 4.787146,4.56954 -0.290129,3.98929 -7.108188,-4.42448 z"
         id="path40"
         transform="translate(-0.37002146,0.36627958)" /></g></g></svg>
